DSNameFont.sfdir
StartChar: A
Encoding: 65 65 0
Width: 356
VWidth: 0
Flags: W
LayerCount: 2
Fore
SplineSet
252.8828125 237.791992188 m 1
 171.330078125 467.908203125 l 1
 126.90625 229.965820312 l 1
 252.8828125 237.791992188 l 1
-31.228515625 75.7705078125 m 1
 54.7978515625 126.00390625 l 1
 111.479492188 625.766601562 l 1
 35.8984375 673.31640625 l 1
 262.711914062 666.376953125 l 1
 228.158203125 635 l 1
 369.805664062 102.930664062 l 1
 423.625 74.96484375 l 1
 253.41015625 41.7529296875 l 1
 302.955078125 95.224609375 l 1
 267.401367188 188.692382812 l 1
 120.856445312 175.346679688 l 1
 106.583007812 87.4814453125 l 1
 154.418945312 27.1474609375 l 1
 -31.228515625 75.7705078125 l 1
EndSplineSet
Validated: 524289
EndChar
StartChar: B
Encoding: 66 66 1
Width: 359
VWidth: 0
Flags: W
LayerCount: 2
Fore
SplineSet
237.35546875 382.58203125 m 1
 171.23828125 498.10546875 l 1
 181.658203125 296.3671875 l 1
 237.35546875 382.58203125 l 1
248.655273438 175.016601562 m 1
 185.919921875 254.469726562 l 1
 194.759765625 87.1767578125 l 1
 248.655273438 175.016601562 l 1
79.2314453125 52.3115234375 m 1
 129.833984375 91.7978515625 l 1
 61.56640625 610.254882812 l 1
 -11.9345703125 655.03125 l 1
 216.932617188 652.1328125 l 1
 333.796875 427.530273438 l 1
 256.59765625 304.168945312 l 1
 342.39453125 187.053710938 l 1
 253.759765625 50 l 1
 79.2314453125 52.3115234375 l 1
EndSplineSet
Validated: 524289
EndChar
StartChar: C
Encoding: 67 67 2
Width: 334
VWidth: 0
Flags: W
VStem: 196.19 78.6973<422.64 461.149> 229.494 69.6621<188.817 210.555>
LayerCount: 2
Fore
SplineSet
9.6611328125 366.23046875 m 5x40
 65.5888671875 649.405273438 l 1
 208.209960938 678.188476562 l 1
 239.313476562 600.32421875 l 1
 277.254882812 668.506835938 l 1
 274.887695312 422.639648438 l 1
 196.190429688 414.354492188 l 1x80
 171.032226562 582.534179688 l 1
 101.333984375 556.0390625 l 1
 101.047851562 340.552734375 l 1
 146.654296875 99.810546875 l 1
 217.342773438 110.120117188 l 1
 229.494140625 210.5546875 l 1
 299.15625 227.317382812 l 1
 266.916992188 50 l 1
 113.7109375 52.376953125 l 1
 9.6611328125 366.23046875 l 5x40
EndSplineSet
Validated: 524289
EndChar
StartChar: D
Encoding: 68 68 3
Width: 365
VWidth: 0
Flags: W
VStem: 60.8965 59.4668<95.4541 229.863>
LayerCount: 2
Fore
SplineSet
257.32421875 303.182617188 m 1
 137.130859375 485.064453125 l 1
 120.36328125 95.4541015625 l 1
 257.32421875 303.182617188 l 1
13.8388671875 60.0400390625 m 1
 60.896484375 77.8125 l 1
 34.921875 642.018554688 l 1
 -21.8955078125 663.427734375 l 1
 157.858398438 686.36328125 l 1
 339.030273438 345.388671875 l 1
 220.703125 50 l 1
 13.8388671875 60.0400390625 l 1
EndSplineSet
Validated: 524289
EndChar
StartChar: E
Encoding: 69 69 5
Width: 312
VWidth: 0
Flags: W
HStem: 50 84.416<143.656 241.542> 62.5664 67.5527<130.305 175.234> 315.188 44.876<139.418 153.169>
VStem: 72.8574 75.2822<406.53 595.453> 86.3857 43.9189<130.119 315.188>
LayerCount: 2
Fore
SplineSet
21.04296875 62.56640625 m 1x68
 86.3857421875 116.028320312 l 1x68
 72.857421875 617.955078125 l 1
 31.1875 661.970703125 l 1
 283.896484375 686.868164062 l 1
 289.264648438 502.3359375 l 1
 237.883789062 595.453125 l 1
 148.139648438 595.453125 l 1x70
 139.41796875 360.063476562 l 1
 153.168945312 359.614257812 l 1
 200.159179688 416.880859375 l 1
 201.064453125 274.024414062 l 1
 165.26953125 316.24609375 l 1
 136.842773438 315.1875 l 1
 130.3046875 130.119140625 l 1x68
 241.541992188 134.416015625 l 1
 287.447265625 228.506835938 l 1
 297.846679688 50 l 1xa8
 21.04296875 62.56640625 l 1x68
EndSplineSet
Validated: 524289
EndChar
StartChar: F
Encoding: 70 70 6
Width: 318
VWidth: 0
Flags: W
HStem: 334.499 51.293<122.223 152.808> 592.761 101.971<147.666 249.768> 592.836 87.2119<90.9111 132.882>
VStem: -18.5127 317.573
LayerCount: 2
Fore
SplineSet
66.6748046875 84.4111328125 m 1xb0
 34.853515625 624.845703125 l 1
 -18.5126953125 680.047851562 l 1xb0
 299.060546875 694.731445312 l 1
 271.692382812 493.810546875 l 1
 249.767578125 592.760742188 l 1xd0
 90.9111328125 592.8359375 l 1
 111.118164062 384.232421875 l 1
 152.807617188 385.791992188 l 1
 167.955078125 446.169921875 l 1
 202.079101562 313.768554688 l 1
 176.075195312 334.499023438 l 1
 122.22265625 331.986328125 l 1
 153.37109375 87.4814453125 l 1
 212.62109375 58.74609375 l 1
 25.4921875 50 l 1
 66.6748046875 84.4111328125 l 1xb0
EndSplineSet
Validated: 524289
EndChar
StartChar: G
Encoding: 71 71 7
Width: 406
VWidth: 0
Flags: W
HStem: 585.187 121.5<154.709 245.983> 585.187 114.422<154.709 245.983>
LayerCount: 2
Fore
SplineSet
271.392578125 50 m 1x80
 132.87109375 35.9453125 l 1
 31.21875 343.303710938 l 1
 89.6328125 706.686523438 l 1x80
 323.587890625 699.608398438 l 1x40
 346.577148438 496.68359375 l 1
 395.58203125 490.56640625 l 1
 224.65234375 416.737304688 l 1
 245.983398438 585.186523438 l 1
 154.708984375 585.186523438 l 1
 123.145507812 362.329101562 l 1
 181.76953125 111.943359375 l 1
 264.41796875 133.681640625 l 1
 271.296875 278.771484375 l 1
 202.618164062 306.24609375 l 1
 379.991210938 344.404296875 l 1
 359.837890625 36.740234375 l 1
 267.09765625 3.783203125 l 1
 271.392578125 50 l 1x80
EndSplineSet
Validated: 524289
EndChar
StartChar: H
Encoding: 72 72 8
Width: 562
VWidth: 0
Flags: W
HStem: 44.6729 21G<22.6445 166.178>
VStem: 71.7178 67.5625<104.438 348.196> 73.999 74.0381<456.429 648.116> 391.731 77.5635<96.0605 247.914>
LayerCount: 2
Fore
SplineSet
345.55859375 49.8984375 m 1xb0
 391.731445312 95.6875 l 1
 403.138671875 343.756835938 l 1
 145.515625 348.196289062 l 1
 139.280273438 84.8330078125 l 1
 192.861328125 44.6728515625 l 1
 22.64453125 50 l 1
 71.7177734375 104.4375 l 1xd0
 73.9990234375 656.10546875 l 1
 20.1689453125 690.32421875 l 1
 227.560546875 717.694335938 l 1
 152.044921875 648.116210938 l 1
 148.037109375 456.428710938 l 1
 401.138671875 421.436523438 l 1
 417.485351562 634.25390625 l 1
 372.041015625 695.846679688 l 1
 539.859375 694.041992188 l 1
 485.677734375 656.193359375 l 1
 469.294921875 96.060546875 l 1
 517.5625 34.896484375 l 1
 345.55859375 49.8984375 l 1xb0
EndSplineSet
Validated: 524289
EndChar
StartChar: I
Encoding: 73 73 9
Width: 244
VWidth: 0
Flags: W
HStem: 43.8887 21G<25.5742 173.759> 703.978 20G<24.3369 204.757>
VStem: 76.0547 68.5342<105.892 371.35> 78.5439 80.1943<377.432 662.37>
LayerCount: 2
Fore
SplineSet
25.57421875 50 m 1xe0
 76.0546875 105.891601562 l 1xe0
 78.5439453125 662.857421875 l 1
 24.3369140625 705.70703125 l 1
 226.877929688 723.977539062 l 1
 158.73828125 662.370117188 l 1xd0
 144.588867188 86.412109375 l 1
 199.661132812 43.888671875 l 1
 25.57421875 50 l 1xe0
EndSplineSet
Validated: 524289
EndChar
StartChar: J
Encoding: 74 74 10
Width: 492
VWidth: 0
Flags: W
VStem: 295.806 80.1074<328.387 637.753>
LayerCount: 2
Fore
SplineSet
79.2236328125 50 m 5
 42.8125 236.670898438 l 1
 -24.5517578125 277.23828125 l 1
 137.805664062 309.807617188 l 1
 151.547851562 124.306640625 l 1
 249.96875 92.1162109375 l 1
 295.805664062 354.120117188 l 1
 298.303710938 647.881835938 l 1
 229.918945312 678.309570312 l 1
 458.942382812 707.069335938 l 1
 379.932617188 637.752929688 l 1
 375.913085938 321.694335938 l 1
 313.458984375 27.86328125 l 1
 287.219726562 23.30078125 l 1
 79.2236328125 50 l 5
EndSplineSet
Validated: 524289
EndChar
StartChar: K
Encoding: 75 75 11
Width: 426
VWidth: 0
Flags: W
HStem: 704.832 20G<293.12 357.933>
VStem: 56.3242 88.9561<462.872 669.543> 75.9912 79.2832<88.8867 295.558>
LayerCount: 2
Fore
SplineSet
272.046875 87.90625 m 1xc0
 248.126953125 247.955078125 l 1
 155.274414062 323.080078125 l 1
 156.27734375 82.060546875 l 1
 183.153320312 50 l 1
 42.138671875 42.8564453125 l 1
 75.9912109375 88.88671875 l 1xa0
 56.32421875 669.54296875 l 1
 25.9033203125 693.4921875 l 1
 171.418945312 714.36328125 l 1
 145.280273438 681.84765625 l 1
 152.34375 393.53125 l 1
 252.293945312 502.099609375 l 1
 273.051757812 666.275390625 l 1
 245.440429688 693.319335938 l 1
 375.950195312 724.83203125 l 1
 344.212890625 689.602539062 l 1
 337.549804688 491.340820312 l 1
 174.712890625 375.696289062 l 1
 346.45703125 295.959960938 l 1
 357.125976562 94.185546875 l 1
 392.787109375 56.5732421875 l 5
 220.708984375 33.2734375 l 5
 272.046875 87.90625 l 1xc0
EndSplineSet
Validated: 524289
EndChar
StartChar: L
Encoding: 76 76 12
Width: 402
VWidth: 0
Flags: W
HStem: 40.2344 56.7275<176.157 226.628> 52.4561 45.1465<176.157 317.302>
VStem: 71.8271 104.33<96.9619 636.126>
LayerCount: 2
Fore
SplineSet
24.171875 40.232421875 m 1xa0
 71.8271484375 85.8974609375 l 1
 77.74609375 636.125976562 l 1
 28.7919921875 665.291015625 l 1
 196.754882812 672.467773438 l 1
 172.036132812 646.134765625 l 1
 176.157226562 96.9619140625 l 1xa0
 317.301757812 97.6025390625 l 1
 359.9140625 263.377929688 l 1
 377.647460938 52.4560546875 l 1x60
 24.17578125 40.234375 l 1
 24.171875 40.232421875 l 1xa0
EndSplineSet
Validated: 524289
EndChar
StartChar: M
Encoding: 77 77 15
Width: 444
VWidth: 0
Flags: W
VStem: 40.1777 94.1738<91.3252 289.12> 40.2227 76.5273<398.154 610.073>
LayerCount: 2
Fore
SplineSet
212.4765625 40.734375 m 1x40
 278.947265625 92.1943359375 l 1
 263.345703125 614.59765625 l 1
 197.41015625 260.729492188 l 1
 116.75 610.073242188 l 1x40
 134.3515625 77.2001953125 l 1
 161.921875 50 l 1
 12.57421875 45.21875 l 1
 40.177734375 91.3251953125 l 1x80
 40.22265625 669.78515625 l 1
 7.92578125 695.424804688 l 1
 157.203125 688.260742188 l 1
 140.849609375 665.190429688 l 1
 209.20703125 411.668945312 l 1
 240.412109375 694.833007812 l 1
 192.91796875 729.850585938 l 1
 361.66015625 730.661132812 l 1
 327.734375 695.381835938 l 1
 375.25390625 72.3828125 l 1
 412.07421875 38.544921875 l 1
 212.486328125 40.7197265625 l 1
 212.4765625 40.734375 l 1x40
EndSplineSet
Validated: 524289
EndChar
StartChar: N
Encoding: 78 78 13
Width: 500
VWidth: 0
Flags: W
HStem: 44.1406 21G<29.7266 173.227>
VStem: 79.8584 100.535<352.565 557.604> 87.4902 78.6045<92.25 430.938> 314.67 111.91<476.312 668.325> 331.439 73.6719<184.799 271.033>
LayerCount: 2
Fore
SplineSet
29.7265625 51.3408203125 m 1xa0
 87.490234375 92.25 l 1xa0
 79.8583984375 661.674804688 l 1
 30.5703125 709.1640625 l 1
 192.12890625 694.783203125 l 1
 331.439453125 184.798828125 l 1xc8
 314.669921875 668.325195312 l 1
 278.477539062 705.5625 l 1
 466.431640625 695.44921875 l 1
 426.580078125 668.708007812 l 1x90
 405.111328125 78.6376953125 l 1
 450.67578125 48.0947265625 l 1
 328.016601562 61.08203125 l 1
 180.393554688 557.604492188 l 1xc8
 171.921875 309.458007812 l 1
 168.293945312 164.3515625 l 1
 166.094726562 69.5693359375 l 1
 199.50390625 44.140625 l 1
 29.7265625 51.3408203125 l 1xa0
EndSplineSet
Validated: 524289
EndChar
StartChar: O
Encoding: 79 79 14
Width: 468
VWidth: 0
Flags: W
HStem: 708.059 20G<176.286 239.192>
LayerCount: 2
Fore
SplineSet
219.442382812 121.998046875 m 1
 140.640625 332.736328125 l 1
 181.719726562 535.702148438 l 1
 233.383789062 578.837890625 l 1
 301.791992188 369.20703125 l 1
 286.323242188 114.935546875 l 1
 219.442382812 121.998046875 l 1
333.713867188 106.3671875 m 1
 381.76171875 350.32421875 l 1
 248.201171875 658.157226562 l 1
 128.325195312 613.311523438 l 1
 98.1455078125 316.305664062 l 1
 148.653320312 124.560546875 l 1
 242.291992188 50 l 1
 333.713867188 106.3671875 l 1
81.1640625 88.6298828125 m 1
 20.5556640625 295.356445312 l 1
 -38.3447265625 316.330078125 l 1
 30.43359375 346.146484375 l 1
 95.140625 656.34765625 l 1
 207.670898438 728.05859375 l 1
 346.323242188 640.084960938 l 1
 411.295898438 403.612304688 l 1
 478.037109375 371.120117188 l 1
 425.237304688 326.581054688 l 1
 382.588867188 104.596679688 l 1
 376.892578125 66.66015625 l 1
 228.604492188 -1.36328125 l 1
 81.1640625 88.6298828125 l 1
EndSplineSet
Validated: 524289
EndChar
StartChar: P
Encoding: 80 80 16
Width: 418
VWidth: 0
Flags: W
VStem: 85.9346 75.9883<467.902 609.445>
LayerCount: 2
Fore
SplineSet
246.19140625 391.734375 m 1
 161.922851562 609.4453125 l 1
 174.125976562 362.692382812 l 1
 246.19140625 391.734375 l 1
40.6572265625 52.6279296875 m 1
 108.103515625 78.583984375 l 1
 85.9345703125 634.453125 l 1
 35.12890625 676.004882812 l 1
 264.206054688 687.439453125 l 1
 379.942382812 395.051757812 l 1
 178.538085938 264.552734375 l 1
 185.549804688 94.8359375 l 1
 235.462890625 48.046875 l 1
 40.6572265625 52.6279296875 l 1
EndSplineSet
Validated: 524289
EndChar
StartChar: Q
Encoding: 81 81 17
Width: 450
VWidth: 0
Flags: W
LayerCount: 2
Fore
SplineSet
219.409179688 157.484375 m 5
 269.21484375 185.908203125 l 1
 309.171875 142.724609375 l 1
 329.901367188 383.995117188 l 1
 279.078125 615.5078125 l 1
 137.1328125 562.389648438 l 1
 135.151367188 311.575195312 l 1
 167.842773438 102.158203125 l 1
 260.790039062 95.3134765625 l 1
 260.790039062 101.359375 l 5
 219.409179688 157.484375 l 5
301.790039062 45.74609375 m 1
 127.643554688 45.0546875 l 1
 13.0166015625 323.967773438 l 1
 134.421875 669.73046875 l 1
 335.069335938 685.954101562 l 1
 417.927734375 388.068359375 l 1
 358.673828125 84.0693359375 l 1
 391.240234375 50 l 1
 427.174804688 58.6728515625 l 1
 368.950195312 -32.8193359375 l 1
 301.790039062 45.74609375 l 1
EndSplineSet
Validated: 524289
EndChar
StartChar: R
Encoding: 82 82 18
Width: 466
VWidth: 0
Flags: W
VStem: 127.339 77.4805<96.7891 221.061>
LayerCount: 2
Fore
SplineSet
270.522460938 380.229492188 m 1
 181.172851562 611.399414062 l 1
 201.604492188 253.517578125 l 1
 270.522460938 380.229492188 l 1
328.08984375 14.80859375 m 1
 300.130859375 195.184570312 l 1
 200.20703125 221.060546875 l 1
 204.819335938 96.7890625 l 1
 254.697265625 50 l 1
 59.8916015625 54.626953125 l 1
 127.338867188 80.537109375 l 1
 105.168945312 636.40625 l 1
 54.36328125 677.958984375 l 1
 284.263671875 687.521484375 l 1
 402.423828125 388.09375 l 1
 278.763671875 254.20703125 l 1
 383.237304688 222.690429688 l 1
 413.685546875 59.5986328125 l 1
 448.802734375 52.30859375 l 1
 334.638671875 -5.48046875 l 1
 328.08984375 14.8115234375 l 1
 328.08984375 14.80859375 l 1
EndSplineSet
Validated: 524289
EndChar
StartChar: S
Encoding: 83 83 19
Width: 396
VWidth: 0
Flags: W
HStem: 42.2402 88.3887<203.471 251.023> 50 80.6289<203.471 251.023>
LayerCount: 2
Fore
SplineSet
65.0380859375 266.685546875 m 1x80
 17.296875 299.728515625 l 1
 194.491210938 337.59375 l 1
 165.39453125 292.701171875 l 1
 203.470703125 130.62890625 l 1
 251.0234375 130.62890625 l 1x80
 251.0234375 399.731445312 l 1
 42.7890625 386.528320312 l 1
 55.14453125 729.655273438 l 1
 269.955078125 775.875 l 1
 304.106445312 633.702148438 l 1
 376.94140625 619.266601562 l 1
 219.502929688 520.978515625 l 1
 195.701171875 700.76953125 l 1
 147.09765625 702.869140625 l 1
 122.776367188 457.647460938 l 1
 369.46875 469.380859375 l 1
 347.236328125 50 l 1x40
 124.846679688 42.240234375 l 1
 65.0380859375 266.685546875 l 1x80
EndSplineSet
Validated: 524289
EndChar
StartChar: T
Encoding: 84 84 20
Width: 366
VWidth: 0
Flags: W
VStem: 33.0371 16.1602<637.445 643.891>
LayerCount: 2
Fore
SplineSet
102.678710938 50 m 1
 144.321289062 98.3037109375 l 1
 140.880859375 683.178710938 l 1
 49.197265625 663.283203125 l 1
 33.037109375 603.633789062 l 1
 14.3515625 711.094726562 l 1
 336.080078125 742.3984375 l 1
 318.840820312 626.41796875 l 1
 292.186523438 683.469726562 l 1
 183.282226562 683.177734375 l 1
 234.974609375 77.658203125 l 1
 267.346679688 48.6279296875 l 1
 102.678710938 50 l 1
EndSplineSet
Validated: 524289
EndChar
StartChar: U
Encoding: 85 85 21
Width: 684
VWidth: 0
Flags: W
VStem: 484.855 107.698<537.306 698.802> 489.237 117.465<367.647 533.783>
LayerCount: 2
Fore
SplineSet
112.841796875 216.026367188 m 1x40
 60.466796875 667.212890625 l 1
 18.4423828125 697.522460938 l 1
 193.225585938 722.456054688 l 1
 159.298828125 679.40234375 l 1
 177.618164062 333.891601562 l 1
 338.536132812 137.623046875 l 1
 440.584960938 166.444335938 l 1
 489.237304688 368.73046875 l 1x40
 484.85546875 698.801757812 l 1
 437.963867188 743.5625 l 1
 668.763671875 737.956054688 l 1
 592.553710938 703.442382812 l 1x80
 606.702148438 367.647460938 l 1
 601.334960938 353.341796875 l 1
 495.697265625 50 l 1
 280.145507812 35.736328125 l 1
 112.841796875 216.026367188 l 1x40
EndSplineSet
Validated: 524289
EndChar
StartChar: V
Encoding: 86 86 22
Width: 500
VWidth: 0
Flags: W
LayerCount: 2
Fore
SplineSet
120.310546875 592.966796875 m 1
 34.8974609375 642.161132812 l 1
 220.327148438 690.59765625 l 1
 171.905273438 630.501953125 l 1
 236.307617188 252.286132812 l 1
 366.838867188 623.115234375 l 1
 317.88671875 675.970703125 l 1
 487.11328125 642.951171875 l 1
 433.606445312 615.147460938 l 1
 292.780273438 86.1630859375 l 1
 328.159179688 54.234375 l 1
 181.62109375 50 l 1
 120.310546875 592.966796875 l 1
EndSplineSet
Validated: 524289
EndChar
StartChar: W
Encoding: 87 87 23
Width: 528
VWidth: 0
Flags: W
LayerCount: 2
Fore
SplineSet
229.091796875 317.638671875 m 1
 168.8984375 50 l 1
 71.25 631.483398438 l 1
 13.66015625 680.89453125 l 1
 188.665039062 650.647460938 l 1
 147.23046875 605.495117188 l 1
 193.880859375 259.686523438 l 1
 247.262695312 589.9453125 l 1
 317.95703125 168.30078125 l 1
 327.303710938 678.50390625 l 1
 247.568359375 715.990234375 l 1
 504.08984375 715.901367188 l 1
 447.768554688 678.919921875 l 1
 343.47265625 -7.8955078125 l 1
 229.091796875 317.638671875 l 1
EndSplineSet
Validated: 524289
EndChar
StartChar: X
Encoding: 88 88 24
Width: 454
VWidth: 0
Flags: W
HStem: 703.3 20G<268.858 417.237>
LayerCount: 2
Fore
SplineSet
282.485351562 65.2822265625 m 1
 204.999023438 271.217773438 l 1
 131.499023438 85.3525390625 l 1
 174.987304688 50 l 1
 11.7958984375 57.3447265625 l 1
 89.68359375 83.841796875 l 1
 179.677734375 340.326171875 l 1
 69.49609375 632.227539062 l 1
 28.205078125 646.748046875 l 1
 178.234375 684.165039062 l 1
 150.749023438 635.637695312 l 1
 217.653320312 455.442382812 l 1
 297.725585938 683.900390625 l 1
 239.095703125 723.299804688 l 1
 417.237304688 720.052734375 l 1
 358.046875 675.803710938 l 1
 243.19921875 378.137695312 l 1
 362.6875 52.6083984375 l 1
 413.340820312 36.458984375 l 1
 234.5234375 4.14453125 l 1
 282.485351562 65.2822265625 l 1
EndSplineSet
Validated: 524289
EndChar
StartChar: Y
Encoding: 89 89 25
Width: 506
VWidth: 0
Flags: W
LayerCount: 2
Fore
SplineSet
132.290039062 50 m 1
 187.5078125 84.3798828125 l 1
 220.655273438 393.34375 l 1
 104.842773438 645.938476562 l 1
 36.623046875 679.05859375 l 1
 222.990234375 693.936523438 l 1
 187.55859375 658.41015625 l 1
 235.540039062 450.282226562 l 1
 317.317382812 705.03125 l 1
 268.638671875 741.411132812 l 1
 475.716796875 737.544921875 l 1
 422.859375 705.03125 l 1
 275.685546875 409.577148438 l 1
 280.0078125 63.2041015625 l 1
 322.215820312 41.1005859375 l 1
 132.290039062 50 l 1
EndSplineSet
Validated: 524289
EndChar
StartChar: Z
Encoding: 90 90 26
Width: 500
VWidth: 0
Flags: W
HStem: 33.4414 47.21<171.68 219.261> 50 29.2207<286.098 393.465> 602.28 35.3916<112.668 210.913> 605.734 48.5312<278.415 330.028>
LayerCount: 2
Fore
SplineSet
36.4033203125 33.44140625 m 1x80
 330.028320312 605.734375 l 1x90
 112.66796875 602.280273438 l 1
 73.412109375 507.834960938 l 1
 28.740234375 637.671875 l 1x20
 460.587890625 654.265625 l 1
 171.6796875 80.6513671875 l 1x90
 393.46484375 79.220703125 l 1
 432.870117188 150.719726562 l 1
 468.955078125 50 l 1x40
 36.4033203125 33.44140625 l 1x80
EndSplineSet
Validated: 524289
EndChar
